<svg width="158" height="153" viewBox="0 0 158 153" fill="none" xmlns="http://www.w3.org/2000/svg">
<g filter="url(#filter0_g_1517_42)">
<path d="M103.975 136.778V132.778L119.975 125.733V130.335L109.02 134.733L109.168 134.494V135.062L109.02 134.823L119.975 139.221V143.823L103.975 136.778ZM134.918 119.721L127.418 147.585H123.247L130.747 119.721H134.918ZM154.193 136.778L138.193 143.823V139.221L149.148 134.823L149 135.062V134.494L149.148 134.733L138.193 130.335V125.733L154.193 132.778V136.778Z" fill="url(#paint0_linear_1517_42)"/>
</g>
<g filter="url(#filter1_g_1517_42)">
<path d="M134.1 114.085V5.06968C134.1 3.97103 133.213 3.07806 132.115 3.06974L4.11476 2.10004C3.0043 2.09163 2.09961 2.9895 2.09961 4.09999V132.085C2.09961 133.189 2.99504 134.085 4.09961 134.085H98.0996" stroke="url(#paint1_linear_1517_42)" stroke-width="2"/>
</g>
<defs>
<filter id="filter0_g_1517_42" x="102.875" y="118.621" width="52.4188" height="30.0636" filterUnits="userSpaceOnUse" color-interpolation-filters="sRGB">
<feFlood flood-opacity="0" result="BackgroundImageFix"/>
<feBlend mode="normal" in="SourceGraphic" in2="BackgroundImageFix" result="shape"/>
<feTurbulence type="fractalNoise" baseFrequency="0.5 0.5" numOctaves="3" seed="573" />
<feDisplacementMap in="shape" scale="2.2000000476837158" xChannelSelector="R" yChannelSelector="G" result="displacedImage" width="100%" height="100%" />
<feMerge result="effect1_texture_1517_42">
<feMergeNode in="displacedImage"/>
</feMerge>
</filter>
<filter id="filter1_g_1517_42" x="-0.000390649" y="-2.44379e-05" width="136.2" height="136.185" filterUnits="userSpaceOnUse" color-interpolation-filters="sRGB">
<feFlood flood-opacity="0" result="BackgroundImageFix"/>
<feBlend mode="normal" in="SourceGraphic" in2="BackgroundImageFix" result="shape"/>
<feTurbulence type="fractalNoise" baseFrequency="0.5 0.5" numOctaves="3" seed="70" />
<feDisplacementMap in="shape" scale="2.2000000476837158" xChannelSelector="R" yChannelSelector="G" result="displacedImage" width="100%" height="100%" />
<feMerge result="effect1_texture_1517_42">
<feMergeNode in="displacedImage"/>
</feMerge>
</filter>
<linearGradient id="paint0_linear_1517_42" x1="142.675" y1="131.255" x2="122.351" y2="158.398" gradientUnits="userSpaceOnUse">
<stop stop-color="#00FFA6"/>
<stop offset="1" stop-color="#00E4FF"/>
</linearGradient>
<linearGradient id="paint1_linear_1517_42" x1="100.1" y1="63.5848" x2="28.5996" y2="130.085" gradientUnits="userSpaceOnUse">
<stop stop-color="#00FFA6"/>
<stop offset="1" stop-color="#00E4FF"/>
</linearGradient>
</defs>
</svg>
