<svg width="250" height="222" viewBox="0 0 250 222" fill="none" xmlns="http://www.w3.org/2000/svg">
<path d="M156.573 0.543666C149.195 -1.58049 141.513 2.71118 139.387 10.0807L83.836 204.29C81.7095 211.659 86.006 219.332 93.3838 221.456C100.762 223.581 108.443 219.289 110.57 211.919L166.121 17.7104C168.247 10.3408 163.951 2.66783 156.573 0.543666ZM184.609 59.5433C179.184 64.9621 179.184 73.7622 184.609 79.181L216.463 111L184.609 142.819C179.184 148.238 179.184 157.038 184.609 162.457C190.033 167.876 198.843 167.876 204.268 162.457L245.931 120.841C251.356 115.422 251.356 106.622 245.931 101.203L204.268 59.5867C198.843 54.1679 190.033 54.1679 184.609 59.5867V59.5433ZM65.3915 59.5433C59.9666 54.1245 51.1566 54.1245 45.7317 59.5433L4.06866 101.16C-1.35622 106.578 -1.35622 115.378 4.06866 120.797L45.7317 162.413C51.1566 167.832 59.9666 167.832 65.3915 162.413C70.8163 156.995 70.8163 148.194 65.3915 142.776L33.5366 111L65.3481 79.181C70.7729 73.7622 70.7729 64.9621 65.3481 59.5433H65.3915Z" fill="url(#paint0_linear_1552_18)"/>
<defs>
<linearGradient id="paint0_linear_1552_18" x1="185.606" y1="103.432" x2="65.169" y2="229.575" gradientUnits="userSpaceOnUse">
<stop stop-color="#00FFA6"/>
<stop offset="1" stop-color="#00E4FF"/>
</linearGradient>
</defs>
</svg>
