<svg width="852" height="852" viewBox="0 0 852 852" fill="none" xmlns="http://www.w3.org/2000/svg">
<path d="M364.59 179.5C367.59 164.7 380.69 154 395.89 154H455.69C470.89 154 483.99 164.7 486.99 179.5L501.49 249.5C515.59 255.5 528.79 263.2 540.79 272.3L608.59 249.8C622.99 245 638.79 251 646.39 264.2L676.29 316C683.89 329.2 681.19 345.8 669.79 355.9L616.49 403.3C617.39 410.7 617.79 418.3 617.79 426C617.79 433.7 617.29 441.3 616.49 448.7L669.89 496.2C681.29 506.3 683.89 523 676.39 536.1L646.49 587.9C638.89 601 623.09 607.1 608.69 602.3L540.89 579.8C528.79 588.9 515.59 596.5 501.59 602.6L487.19 672.5C484.09 687.4 470.99 698 455.89 698H396.09C380.89 698 367.79 687.3 364.79 672.5L350.39 602.6C336.29 596.6 323.19 588.9 311.09 579.8L242.99 602.3C228.59 607.1 212.79 601.1 205.19 587.9L175.29 536.1C167.69 522.9 170.39 506.3 181.79 496.2L235.19 448.7C234.29 441.3 233.89 433.7 233.89 426C233.89 418.3 234.39 410.7 235.19 403.3L181.79 355.8C170.39 345.7 167.79 329 175.29 315.9L205.19 264.1C212.79 250.9 228.59 244.9 242.99 249.7L310.79 272.2C322.89 263.1 336.09 255.5 350.09 249.4L364.59 179.5Z" fill="#242424"/>
<path d="M828 426C828 648.018 648.018 828 426 828" stroke="#242424" stroke-width="48" stroke-linecap="round"/>
<path d="M24 426C24 203.982 203.982 24 426 24" stroke="#242424" stroke-width="48" stroke-linecap="round"/>
</svg>
