<svg width="640" height="640" viewBox="0 0 640 640" fill="none" xmlns="http://www.w3.org/2000/svg">
<path d="M125.4 128C91.5 128 64 155.5 64 189.4C64 190.3 64 191.1 64.1 192H64V448C64 483.3 92.7 512 128 512H512C547.3 512 576 483.3 576 448V192H575.9C575.9 191.1 576 190.3 576 189.4C576 155.5 548.5 128 514.6 128H125.4ZM528 256.3V448C528 456.8 520.8 464 512 464H128C119.2 464 112 456.8 112 448V256.3L266.8 373.7C298.2 397.6 341.7 397.6 373.2 373.7L528 256.3ZM112 189.4C112 182 118 176 125.4 176H514.6C522 176 528 182 528 189.4C528 193.6 526 197.6 522.7 200.1L344.2 335.5C329.9 346.3 310.1 346.3 295.8 335.5L117.3 200.1C114 197.6 112 193.6 112 189.4Z" fill="white"/>
</svg>
