<svg width="512" height="512" viewBox="0 0 512 512" fill="none" xmlns="http://www.w3.org/2000/svg">
<path d="M256 512C114.6 512 0 397.4 0 256C0 114.6 114.6 0 256 0C397.4 0 512 114.6 512 256C512 397.4 397.4 512 256 512ZM256 320C238.3 320 224 334.3 224 352C224 369.7 238.3 384 256 384C273.7 384 288 369.7 288 352C288 334.3 273.7 320 256 320ZM256 128C237.8 128 223.3 143.5 224.6 161.7L232 265.7C232.9 278.3 243.4 288 255.9 288C268.5 288 278.9 278.3 279.8 265.7L287.2 161.7C288.5 143.5 274.1 128 255.8 128H256Z" fill="#FE9A00"/>
</svg>
