<svg width="1374" height="1466" viewBox="0 0 1374 1466" fill="none" xmlns="http://www.w3.org/2000/svg">
<path d="M521.926 68.7187C530.015 28.8349 565.333 0 606.313 0H767.536C808.516 0 843.834 28.8349 851.922 68.7187L891.015 257.358C929.029 273.528 964.617 294.278 996.969 318.801L1179.76 258.167C1218.58 245.232 1261.18 261.401 1281.67 296.973L1362.28 436.566C1382.77 472.138 1375.49 516.873 1344.76 544.091L1201.06 671.827C1203.49 691.769 1204.56 712.25 1204.56 733C1204.56 753.75 1203.22 774.231 1201.06 794.173L1345.03 922.179C1375.76 949.397 1382.77 994.401 1362.55 1029.7L1281.94 1169.3C1261.45 1204.6 1218.85 1221.04 1180.03 1208.1L997.239 1147.47C964.617 1171.99 929.029 1192.47 891.284 1208.91L852.461 1397.28C844.104 1437.43 808.785 1466 768.075 1466H606.852C565.872 1466 530.554 1437.17 522.466 1397.28L483.643 1208.91C445.628 1192.74 410.31 1171.99 377.688 1147.47L194.088 1208.1C155.265 1221.04 112.667 1204.87 92.1772 1169.3L11.5656 1029.7C-8.92434 994.131 -1.64503 949.397 29.0899 922.179L173.059 794.173C170.632 774.231 169.554 753.75 169.554 733C169.554 712.25 170.902 691.769 173.059 671.827L29.0899 543.821C-1.64503 516.603 -8.65474 471.599 11.5656 436.297L92.1772 296.703C112.667 261.131 155.265 244.962 194.088 257.897L376.879 318.532C409.501 294.008 445.089 273.528 482.834 257.089L521.926 68.7187Z" fill="url(#paint0_linear_1560_22)"/>
<defs>
<linearGradient id="paint0_linear_1560_22" x1="1020.09" y1="683.023" x2="231.367" y2="1370.56" gradientUnits="userSpaceOnUse">
<stop stop-color="#00FFA6"/>
<stop offset="1" stop-color="#00E4FF"/>
</linearGradient>
</defs>
</svg>
